<svg id="main-svg-preview" xmlns="http://www.w3.org/2000/svg" viewBox="0 0 256 256" width="100%" height="100%"><defs><filter id="shadow" x="-20%" y="-20%" width="140%" height="140%"><feDropShadow dx="0" dy="6" stdDeviation="8" flood-color="#000" flood-opacity="0.7"/></filter><filter id="lightShadow" x="-20%" y="-20%" width="140%" height="140%"><feDropShadow dx="0" dy="4" stdDeviation="4" flood-color="#000" flood-opacity="0.5"/></filter><filter id="neonGlow" x="-50%" y="-50%" width="200%" height="200%"><feGaussianBlur stdDeviation="8" result="coloredBlur"/><feMerge><feMergeNode in="coloredBlur"/><feMergeNode in="SourceGraphic"/></feMerge></filter><linearGradient id="bgGrad" x1="0%" y1="0%" x2="100%" y2="100%"><stop offset="0%" stop-color="#3A3A3C"/><stop offset="100%" stop-color="#1C1C1E"/></linearGradient><linearGradient id="stGrad" x1="0%" y1="0%" x2="0%" y2="100%"><stop offset="0%" stop-color="#FFEA00"/><stop offset="100%" stop-color="#FF9500"/></linearGradient></defs><g transform=""><g stroke="#C8102E" stroke-width="14" fill="#0A0A0A" stroke-linejoin="round" stroke-linecap="round" filter="url(#lightShadow)"><path d="M 124 24 C 60 10, 16 60, 24 110 C 8 130, 8 180, 40 208 C 64 230, 104 230, 124 216 Z"/><path d="M 132 24 C 196 10, 240 60, 232 110 C 248 130, 248 180, 216 208 C 192 230, 152 230, 132 216 Z"/></g><line x1="128" y1="28" x2="128" y2="216" stroke="#C8102E" stroke-width="10" stroke-linecap="round" filter=""/><g stroke="#C8102E" stroke-width="8" fill="none" stroke-linejoin="round" stroke-linecap="round" filter=""><path d="M 60 60 C 90 70, 90 90, 70 100"/><path d="M 32 110 C 70 120, 70 150, 45 160"/><path d="M 55 195 C 80 195, 80 170, 100 170"/><path d="M 196 60 C 166 70, 166 90, 186 100"/><path d="M 224 110 C 186 120, 186 150, 211 160"/><path d="M 201 195 C 176 195, 176 170, 156 170"/></g><text x="128" y="165" font-family="'Arial Black', Impact, system-ui, sans-serif" font-size="110" font-weight="900" fill="url(#stGrad)" text-anchor="middle" letter-spacing="-2" filter="url(#lightShadow)">ST</text></g><g transform="translate(148, 148)"><circle cx="44" cy="44" r="38" fill="#10B981" filter="url(#shadow)" stroke="#fff" stroke-width="4"/><polygon points="36,28 36,60 62,44" fill="#fff" stroke="#fff" stroke-width="2" stroke-linejoin="round"/></g></svg>